<?xml version="1.0" encoding="UTF-8"?>
<!DOCTYPE svg PUBLIC "-//W3C//DTD SVG 1.1//EN" "http://www.w3.org/Graphics/SVG/1.1/DTD/svg11.dtd">
<!-- Creator: CorelDRAW 2021 (64-Bit) -->
<svg xmlns="http://www.w3.org/2000/svg" xml:space="preserve" width="0.490496in" height="0.0976024in" version="1.1" style="shape-rendering:geometricPrecision; text-rendering:geometricPrecision; image-rendering:optimizeQuality; fill-rule:evenodd; clip-rule:evenodd"
viewBox="0 0 43.59 8.67"
 xmlns:xlink="http://www.w3.org/1999/xlink"
 xmlns:xodm="http://www.corel.com/coreldraw/odm/2003">
 <defs>
  <style type="text/css">
   <![CDATA[
    .fil3 {fill:#FEFEFE}
    .fil8 {fill:#FEFEFE}
    .fil5 {fill:#8F383C}
    .fil6 {fill:#7A050B}
    .fil4 {fill:#7A2228}
    .fil7 {fill:#DE0414}
    .fil1 {fill:#FEFEFE;fill-rule:nonzero}
    .fil2 {fill:#DE0414;fill-rule:nonzero}
    .fil0 {fill:#FBFBFB;fill-rule:nonzero}
   ]]>
  </style>
 </defs>
 <g id="Layer_x0020_1">
  <metadata id="CorelCorpID_0Corel-Layer"/>
  <g id="_2067201377232">
   <path class="fil0" d="M14.61 5.83c-0.25,0 -0.4,-0.15 -0.4,-0.39l0 -1.09 0.83 0 0 -0.9 -0.86 0 0 -1 -0.24 0 -1.53 1.63 0 0.27 0.63 0 0 1.29c0,0.76 0.46,1.22 1.21,1.22l0.81 0 0 -1.03 -0.45 0zm4.49 -0.71c0,-1 -0.76,-1.79 -1.86,-1.79 -1.07,0 -1.86,0.77 -1.86,1.82 0,1.04 0.79,1.82 1.86,1.82 0.86,0 1.55,-0.49 1.79,-1.27l-1.17 0c-0.11,0.2 -0.34,0.32 -0.62,0.32 -0.37,0 -0.62,-0.2 -0.7,-0.59l2.54 0c0.01,-0.11 0.02,-0.21 0.02,-0.31l0 0zm-1.86 -0.87c0.36,0 0.6,0.18 0.7,0.53l-1.38 0c0.1,-0.34 0.33,-0.53 0.68,-0.53l0 0zm4.09 2.72c0.96,0 1.69,-0.63 1.82,-1.55l-1.16 0c-0.1,0.3 -0.35,0.5 -0.67,0.5 -0.41,0 -0.71,-0.32 -0.71,-0.77 0,-0.44 0.29,-0.76 0.71,-0.76 0.31,0 0.57,0.18 0.67,0.46l1.15 0c-0.13,-0.91 -0.85,-1.51 -1.81,-1.51 -1.1,0 -1.89,0.75 -1.89,1.81 0,1.06 0.79,1.82 1.89,1.82l0 0zm4.42 -3.63c-0.34,0 -0.66,0.12 -0.91,0.33l0 -1.46 -1.18 0 0 4.65 1.18 0 0 -1.83c0,-0.44 0.22,-0.69 0.58,-0.69 0.31,0 0.44,0.2 0.44,0.59l0 1.92 1.18 0 0 -2.06c0,-0.88 -0.5,-1.46 -1.29,-1.46l0 0z"/>
   <path class="fil1" d="M29.8 3.34c-0.44,0 -0.82,0.17 -1.07,0.45l-0.16 -0.35 -0.83 0 0 3.42 1.18 0 0 -1.82c0,-0.44 0.21,-0.69 0.58,-0.69 0.29,0 0.44,0.2 0.44,0.59l0 1.92 1.18 0 0 -2.09c0,-0.87 -0.52,-1.43 -1.31,-1.43l0 0zm3.74 3.63c1.11,0 1.91,-0.76 1.91,-1.82 0,-1.06 -0.8,-1.82 -1.91,-1.82 -1.11,0 -1.91,0.76 -1.91,1.82 0,1.06 0.8,1.82 1.91,1.82zm0 -1.06c-0.43,0 -0.74,-0.31 -0.74,-0.76 0,-0.45 0.31,-0.76 0.74,-0.76 0.43,0 0.74,0.31 0.74,0.76 0,0.45 -0.31,0.76 -0.74,0.76l0 0zm4.15 1.06c0.96,0 1.69,-0.63 1.82,-1.55l-1.16 0c-0.1,0.3 -0.35,0.5 -0.67,0.5 -0.41,0 -0.71,-0.32 -0.71,-0.77 0,-0.44 0.29,-0.76 0.71,-0.76 0.31,0 0.57,0.18 0.67,0.46l1.15 0c-0.13,-0.91 -0.85,-1.51 -1.81,-1.51 -1.1,0 -1.89,0.75 -1.89,1.81 0,1.06 0.79,1.82 1.89,1.82l0 0z"/>
   <path class="fil2" d="M42.32 3.45l-0.68 1.88 -0.72 -1.88 -1.28 0 1.41 3.13c-0.16,0.43 -0.29,0.54 -0.74,0.54l-0.32 0 0 1.01 0.4 0c0.88,0 1.3,-0.38 1.76,-1.42l1.43 -3.26 -1.26 0z"/>
  </g>
  <g id="_2067201380304">
   <circle class="fil3" cx="6.41" cy="8.08" r="0.59"/>
   <circle class="fil3" cx="10.5" cy="8.08" r="0.59"/>
  </g>
  <path class="fil3" d="M2.88 1.24l7.55 0c0.08,0 0.15,0.07 0.15,0.15l0 0.13c0,0.08 -0.07,0.15 -0.15,0.15l-7.55 0 0 -0.43z"/>
  <rect class="fil4" x="3.8" y="2.9" width="5.74" height="0.43"/>
  <path class="fil5" d="M4.63 4.15l2.98 0c0.04,0 0.08,0.07 0.08,0.15l0 0.13c0,0.08 -0.03,0.15 -0.08,0.15l-2.98 0 0 -0.43z"/>
  <polygon class="fil6" points="7.98,4.44 4.74,2.53 10.65,2.58 "/>
  <polygon class="fil7" points="7.98,4.44 4.74,2.53 7.62,7.63 "/>
  <path class="fil8" d="M0.27 0l2.26 0c0.11,0 0.2,0.06 0.25,0.15l2.49 4.97c0.05,0.1 0.14,0.15 0.24,0.15l0.16 0 0.35 0.7 -1.11 0 0 -0 -0 0 -2.57 -5.12c-0.05,-0.09 -0.14,-0.15 -0.24,-0.15l-1.82 0c-0.15,0 -0.27,-0.12 -0.27,-0.27l0 -0.15c0,-0.15 0.12,-0.27 0.27,-0.27zm8.3 5.27l2.72 0 0.42 0c0.15,0 0.27,0.12 0.27,0.27l0 0.42 0 0.43 0 0.42c0,0.15 -0.12,0.27 -0.27,0.27l-0.42 0 -3.03 0 0.12 -0.7 2.91 0 0 -0.43 -2.84 0 0.12 -0.7zm-2 1.83l-1.39 0c-0.15,0 -0.27,-0.12 -0.27,-0.27l0 -0.15c0,-0.15 0.12,-0.27 0.27,-0.27l1.05 0 0.35 0.7z"/>
 </g>
</svg>
