<?xml version="1.0" encoding="utf-8"?>
<!-- Generator: Adobe Illustrator 22.1.0, SVG Export Plug-In . SVG Version: 6.00 Build 0)  -->
<svg version="1.1" id="Layer_1" xmlns="http://www.w3.org/2000/svg" xmlns:xlink="http://www.w3.org/1999/xlink" x="0px" y="0px"
	 viewBox="0 0 373.6 88.3" style="enable-background:new 0 0 373.6 88.3;" xml:space="preserve">
<style type="text/css">
	.st0{fill:#222222;}
	.st1{fill:#231011;}
</style>
<g>
	<path class="st0" d="M170.5,88.3l-20.7-39.4h-46.5v39.4H86.6V0h75c5,0,9.3,0.5,12.8,1.6c3.5,1,6.4,2.5,8.6,4.4
		c2.2,1.9,3.8,4.1,4.8,6.7c1,2.6,1.5,5.5,1.5,8.7v6.3c0,5.7-1.7,10.4-5,14.2c-3.3,3.8-9,6.1-16.8,6.8l20.8,39.6H170.5z M172.6,21.2
		c0-5.4-3.7-8.2-11-8.2h-58.3v22.8h58.3c7.4,0,11-2.7,11-8.2V21.2z"/>
	<path class="st0" d="M203.4,88.3V0h16.7v88.3H203.4z"/>
	<path class="st0" d="M238.1,88.3v-13h76.8c7.4,0,11-2.7,11-8.2V56c0-5.4-3.7-8.2-11-8.2H263c-5,0-9.3-0.5-12.8-1.6
		c-3.5-1-6.4-2.5-8.6-4.4c-2.2-1.9-3.8-4.1-4.8-6.7c-1-2.6-1.5-5.5-1.5-8.7v-5.1c0-3.2,0.5-6.1,1.5-8.7c1-2.6,2.6-4.8,4.8-6.7
		c2.2-1.9,5.1-3.3,8.6-4.4C253.7,0.5,258,0,263,0h74.8v13H263c-7.4,0-11,2.7-11,8.2v5.4c0,5.4,3.7,8.2,11,8.2h51.9
		c5,0,9.3,0.5,12.8,1.6c3.5,1,6.4,2.5,8.6,4.4s3.8,4.1,4.8,6.7c1,2.6,1.5,5.5,1.5,8.7V67c0,3.2-0.5,6.1-1.5,8.7
		c-1,2.6-2.6,4.8-4.8,6.7c-2.2,1.9-5.1,3.3-8.6,4.4c-3.5,1-7.8,1.6-12.8,1.6H238.1z"/>
	<path class="st0" d="M356.9,88.3V0h16.7v88.3H356.9z"/>
</g>
<g>
	<rect y="28.3" class="st1" width="0.9" height="47.8"/>
	<rect x="17" y="4.3" class="st1" width="0.9" height="47.9"/>
	<rect x="34" y="17.3" class="st1" width="1" height="48"/>
	<rect x="51" y="28.3" class="st1" width="1" height="47.8"/>
	<rect x="68" y="40.3" class="st1" width="1" height="48"/>
</g>
</svg>
